<?xml version="1.0" encoding="utf-8"?>
<!-- Generator: Adobe Illustrator 18.1.1, SVG Export Plug-In . SVG Version: 6.00 Build 0)  -->
<svg version="1.1" xmlns="http://www.w3.org/2000/svg" xmlns:xlink="http://www.w3.org/1999/xlink" x="0px" y="0px"
	 viewBox="0 0 1200 1077.2" enable-background="new 0 0 1200 1077.2" xml:space="preserve">
<g id="Layer_2" display="none">
	<linearGradient id="SVGID_1_" gradientUnits="userSpaceOnUse" x1="600" y1="-42.2861" x2="600" y2="876.814">
		<stop  offset="0" style="stop-color:#333333"/>
		<stop  offset="0.475" style="stop-color:#666666"/>
		<stop  offset="0.9384" style="stop-color:#333333"/>
	</linearGradient>
	
		<rect y="-45.2" display="inline" opacity="0.6" fill="url(#SVGID_1_)" stroke="#334B60" stroke-miterlimit="10" width="1200" height="922.4"/>
	<linearGradient id="SVGID_2_" gradientUnits="userSpaceOnUse" x1="600" y1="874.4136" x2="600" y2="511.6675">
		<stop  offset="0" style="stop-color:#1A1A1A"/>
		<stop  offset="1" style="stop-color:#CCCCCC"/>
	</linearGradient>
	<polygon display="inline" opacity="0.4" fill="url(#SVGID_2_)" points="0,561.7 157.6,509 178,509 1019,509 1039.4,509 1200,561.7 
		1200,877 0,877 	"/>
	<polygon display="inline" opacity="0.2" fill="#4D4D4D" points="1,596.7 159.6,523 602,523 602,155 159.6,155 1,86.3 	"/>
	<polygon display="inline" opacity="0.2" fill="#4D4D4D" points="1200,596.7 1041.4,523 602,523 602,155 1041.4,155 1200,86.3 	"/>
	<rect x="161" y="155" display="inline" opacity="0.2" fill="#4D4D4D" width="880" height="368"/>
	<polygon display="inline" fill="#808080" points="138,469.2 100,474.2 100,336.2 138,351.2 	"/>
	<polygon display="inline" fill="#808080" points="1056.5,461.7 1084,465.3 1084,365.2 1056.5,376.1 	"/>
	<polygon display="inline" fill="#808080" points="75,501.9 21,513.2 21,251.2 75,278.2 	"/>
	<polygon display="inline" fill="#808080" points="1098.9,502.8 1182.1,519.5 1182.1,225 1098.9,255.3 	"/>
	<rect x="192.1" y="323.3" display="inline" opacity="0.3" fill="#666666" width="95.4" height="150.9"/>
	<rect x="914.6" y="323.3" display="inline" opacity="0.3" fill="#666666" width="95.4" height="150.9"/>
</g>
<g id="Layer_4">
	
		<radialGradient id="SVGID_3_" cx="595.2505" cy="276.1071" r="582.0862" gradientTransform="matrix(1 0 0 1.3334 0 102.6956)" gradientUnits="userSpaceOnUse">
		<stop  offset="0" style="stop-color:#F2F2F2"/>
		<stop  offset="0.1876" style="stop-color:#EDEDED"/>
		<stop  offset="0.4175" style="stop-color:#DEDEDE"/>
		<stop  offset="0.6695" style="stop-color:#C5C5C5"/>
		<stop  offset="0.9357" style="stop-color:#A2A2A2"/>
		<stop  offset="1" style="stop-color:#999999"/>
	</radialGradient>
	<rect x="179.3" y="132.5" fill="url(#SVGID_3_)" width="840" height="944.7"/>
	<rect x="179.3" y="103.5" opacity="0.6" fill="#CCCCCC" width="840" height="25.8"/>
	<linearGradient id="SVGID_4_" gradientUnits="userSpaceOnUse" x1="599.2505" y1="99.9072" x2="599.2505" y2="80.1026">
		<stop  offset="0" style="stop-color:#999999"/>
		<stop  offset="1" style="stop-color:#CCCCCC"/>
	</linearGradient>
	<polygon opacity="0.6" fill="url(#SVGID_4_)" points="1019.3,100.2 179.3,100.2 169.3,80.2 1029.3,80.2 	"/>
</g>
<g id="Layer_1" display="none">
</g>
<g id="Layer_3" display="none">
</g>
</svg>
