<?xml version="1.0" encoding="utf-8"?>
<!-- Generator: Adobe Illustrator 18.1.1, SVG Export Plug-In . SVG Version: 6.00 Build 0)  -->
<svg version="1.1" xmlns="http://www.w3.org/2000/svg" xmlns:xlink="http://www.w3.org/1999/xlink" x="0px" y="0px"
	 viewBox="0 0 1200 877.2" enable-background="new 0 0 1200 877.2" xml:space="preserve">
<g id="Layer_2">
	<polygon opacity="0.2" fill="#334B60" points="1200,596.9 1041.4,523.2 602,523.2 602,155.2 1041.4,155.2 1200,86.5 	"/>
	<linearGradient id="SVGID_1_" gradientUnits="userSpaceOnUse" x1="600" y1="596.6221" x2="600" y2="509.8784">
		<stop  offset="0" style="stop-color:#334B60"/>
		<stop  offset="1" style="stop-color:#334B60;stop-opacity:0.4"/>
	</linearGradient>
	<polygon opacity="0.2" fill="url(#SVGID_1_)" points="0,561.9 157.6,509.2 178,509.2 1019,509.2 1039.4,509.2 1200,561.9 
		1200,597.2 1041,523.2 159.6,523.2 0,597.2 	"/>
	<polygon opacity="0.2" fill="#334B60" points="1,596.9 159.6,523.2 602,523.2 602,155.2 159.6,155.2 1,86.5 	"/>
	<rect x="161" y="155.2" opacity="0.1" fill="#334B60" width="880" height="368"/>
	<polygon opacity="0.1" fill="#334B60" points="138,469.5 100,474.5 100,336.5 138,351.5 	"/>
	<polygon opacity="0.1" fill="#334B60" points="1056.5,461.9 1084,465.5 1084,365.5 1056.5,376.4 	"/>
	<polygon opacity="0.1" fill="#334B60" points="75,502.2 21,513.5 21,251.5 75,278.4 	"/>
	<polygon opacity="0.1" fill="#334B60" points="1098.9,503 1182.1,519.7 1182.1,225.2 1098.9,255.5 	"/>
	<rect x="192.1" y="323.5" opacity="0.12" fill="#334B60" width="95.4" height="150.9"/>
	<rect x="914.6" y="323.5" opacity="0.12" fill="#334B60" width="95.4" height="150.9"/>
</g>
<g id="Layer_4" display="none">
	
		<radialGradient id="SVGID_2_" cx="599.2505" cy="351.2396" r="582.0862" gradientTransform="matrix(1 0 0 1.0512 0 135.9009)" gradientUnits="userSpaceOnUse">
		<stop  offset="0" style="stop-color:#F2F2F2"/>
		<stop  offset="0.1876" style="stop-color:#EDEDED"/>
		<stop  offset="0.4175" style="stop-color:#DEDEDE"/>
		<stop  offset="0.6695" style="stop-color:#C5C5C5"/>
		<stop  offset="0.9357" style="stop-color:#A2A2A2"/>
		<stop  offset="1" style="stop-color:#999999"/>
	</radialGradient>
	<rect x="179.3" y="132.7" display="inline" fill="url(#SVGID_2_)" width="840" height="744.7"/>
	<rect x="179.3" y="103.8" display="inline" opacity="0.6" fill="#CCCCCC" width="840" height="25.8"/>
	<linearGradient id="SVGID_3_" gradientUnits="userSpaceOnUse" x1="599.2505" y1="100.1477" x2="599.2505" y2="80.3431">
		<stop  offset="0" style="stop-color:#999999"/>
		<stop  offset="1" style="stop-color:#CCCCCC"/>
	</linearGradient>
	<polygon display="inline" opacity="0.6" fill="url(#SVGID_3_)" points="1019.3,100.4 179.3,100.4 169.3,80.4 1029.3,80.4 	"/>
</g>
<g id="Layer_1" display="none">
	<g display="inline">
		<text transform="matrix(1 0 0 1 512.4487 334.5064)" opacity="0.6" fill="#334B60" font-family="'MuseoSlab-100'" font-size="18">Currently Featuring:</text>
		
			<text transform="matrix(1 0 0 1 507.3833 401.5064)" opacity="0.6" fill="#334B60" font-family="'Bookmania-Regular'" font-size="18">{ designer / developer }</text>
		<text transform="matrix(1 0 0 1 485.1211 374.5064)" opacity="0.6" fill="#334B60" font-family="'MuseoSlab-700'" font-size="32">Patrick Moore</text>
	</g>
	<line display="inline" fill="none" stroke="#808080" stroke-miterlimit="10" x1="198" y1="540.7" x2="998" y2="540.7"/>
	<rect x="218" y="556.7" display="inline" fill="#808080" width="160" height="100"/>
	<rect x="418" y="556.7" display="inline" fill="#808080" width="160" height="100"/>
	<rect x="618" y="556.7" display="inline" fill="#808080" width="160" height="100"/>
	<rect x="818" y="556.7" display="inline" fill="#808080" width="160" height="100"/>
</g>
<g id="Layer_3" display="none">
	<g display="inline">
		<path fill="#FFFFFF" d="M259.8,476.2c-8.3,0-15-6.7-15-15v-403c0-8.3,6.7-15,15-15h680c8.3,0,15,6.7,15,15v403c0,8.3-6.7,15-15,15
			H259.8z"/>
		<path d="M939.8,58.2v403h-680v-403H939.8 M939.8,28.2h-680c-16.6,0-30,13.4-30,30v403c0,16.6,13.4,30,30,30h680
			c16.6,0,30-13.4,30-30v-403C969.8,41.7,956.4,28.2,939.8,28.2L939.8,28.2z"/>
	</g>
	<line display="inline" fill="none" stroke="#808080" stroke-miterlimit="10" x1="198" y1="517.7" x2="998" y2="517.7"/>
	<rect x="218" y="533.7" display="inline" fill="#808080" width="160" height="100"/>
	<rect x="418" y="533.7" display="inline" fill="#808080" width="160" height="100"/>
	<rect x="618" y="533.7" display="inline" fill="#808080" width="160" height="100"/>
	<g display="inline">
		<rect x="457.9" y="-21.9" fill="#808080" width="56.9" height="35.5"/>
		<rect x="588.5" y="-21.9" fill="#808080" width="46" height="28.8"/>
		<rect x="537.2" y="-30.5" fill="#808080" width="28.8" height="46"/>
		<rect x="656.9" y="-26.2" fill="#808080" width="23.8" height="37.4"/>
		<rect x="703.2" y="-19.4" fill="#808080" width="37.4" height="23.8"/>
	</g>
	<rect x="818" y="533.7" display="inline" fill="#808080" width="160" height="100"/>
</g>
</svg>
