<?xml version="1.0" encoding="utf-8"?>
<!-- Generator: Adobe Illustrator 18.1.1, SVG Export Plug-In . SVG Version: 6.00 Build 0)  -->
<svg version="1.1" xmlns="http://www.w3.org/2000/svg" xmlns:xlink="http://www.w3.org/1999/xlink" x="0px" y="0px"
	 viewBox="0 0 1200 1077.2" enable-background="new 0 0 1200 1077.2" xml:space="preserve">
<g id="Layer_2" display="none">
	<polygon display="inline" opacity="0.15" fill="#334B60" points="1200,596.7 1041.4,523 602,523 602,155 1041.4,155 1200,86.3 	"/>
	<rect y="-84" display="inline" opacity="0.5" fill="#334B60" width="1200" height="1219.6"/>
	<linearGradient id="SVGID_1_" gradientUnits="userSpaceOnUse" x1="600" y1="596.3815" x2="600" y2="509.6379">
		<stop  offset="0" style="stop-color:#334B60"/>
		<stop  offset="1" style="stop-color:#334B60;stop-opacity:0.4"/>
	</linearGradient>
	<polygon display="inline" opacity="0.4" fill="url(#SVGID_1_)" points="0,561.7 157.6,509 178,509 1019,509 1039.4,509 1200,561.7 
		1200,597 1041,523 159.6,523 0,597 	"/>
	<polygon display="inline" opacity="0.15" fill="#334B60" points="1,596.7 159.6,523 602,523 602,155 159.6,155 1,86.3 	"/>
	<rect x="161" y="155" display="inline" opacity="0.2" fill="#334B60" width="880" height="368"/>
	<linearGradient id="SVGID_2_" gradientUnits="userSpaceOnUse" x1="119" y1="472.0426" x2="119" y2="352.782">
		<stop  offset="0" style="stop-color:#334B60"/>
		<stop  offset="1" style="stop-color:#334B60;stop-opacity:0.4"/>
	</linearGradient>
	<polygon display="inline" opacity="0.2" fill="url(#SVGID_2_)" points="138,469.2 100,474.2 100,336.2 138,351.2 	"/>
	<linearGradient id="SVGID_3_" gradientUnits="userSpaceOnUse" x1="1070.2262" y1="476.5424" x2="1070.2262" y2="367.0479">
		<stop  offset="0" style="stop-color:#334B60"/>
		<stop  offset="1" style="stop-color:#334B60;stop-opacity:0.4"/>
	</linearGradient>
	<polygon display="inline" opacity="0.2" fill="url(#SVGID_3_)" points="1056.5,461.7 1084,465.3 1084,365.2 1056.5,376.1 	"/>
	<linearGradient id="SVGID_4_" gradientUnits="userSpaceOnUse" x1="48.0238" y1="499.0413" x2="48.0238" y2="256.9904">
		<stop  offset="0" style="stop-color:#334B60"/>
		<stop  offset="1" style="stop-color:#334B60;stop-opacity:0.4"/>
	</linearGradient>
	<polygon display="inline" opacity="0.2" fill="url(#SVGID_4_)" points="75,501.9 21,513.2 21,251.2 75,278.2 	"/>
	<linearGradient id="SVGID_5_" gradientUnits="userSpaceOnUse" x1="1140.4967" y1="505.041" x2="1140.4967" y2="247.0364">
		<stop  offset="0" style="stop-color:#334B60"/>
		<stop  offset="1" style="stop-color:#334B60;stop-opacity:0.4"/>
	</linearGradient>
	<polygon display="inline" opacity="0.2" fill="url(#SVGID_5_)" points="1098.9,502.8 1182.1,519.5 1182.1,225 1098.9,255.3 	"/>
	<rect x="192.1" y="323.3" display="inline" opacity="0.2" fill="#334B60" width="95.4" height="150.9"/>
	<rect x="914.6" y="323.3" display="inline" opacity="0.2" fill="#334B60" width="95.4" height="150.9"/>
</g>
<g id="Layer_4">
	<rect x="179.3" y="132.5" fill="#ECF0F1" width="840" height="944.7"/>
	<linearGradient id="SVGID_6_" gradientUnits="userSpaceOnUse" x1="599.2505" y1="134.5595" x2="599.2505" y2="1102.3727">
		<stop  offset="0" style="stop-color:#ECF0F1"/>
		<stop  offset="1" style="stop-color:#FFFFFF"/>
	</linearGradient>
	<rect x="179.3" y="132.5" fill="url(#SVGID_6_)" width="840" height="944.7"/>
	<rect x="179.3" y="103.5" opacity="0.4" fill="#ECF0F1" width="840" height="25.8"/>
	<polygon opacity="0.6" fill="#ECF0F1" points="1019.3,100.2 179.3,100.2 169.3,80.2 1029.3,80.2 	"/>
</g>
<g id="Layer_1" display="none">
</g>
<g id="Layer_3" display="none">
</g>
</svg>
